<?xml version="1.0" standalone="no"?>
<!DOCTYPE svg PUBLIC "-//W3C//DTD SVG 1.1//EN" "http://www.w3.org/Graphics/SVG/1.1/DTD/svg11.dtd" >
<svg xmlns="http://www.w3.org/2000/svg" xmlns:xlink="http://www.w3.org/1999/xlink" version="1.1">
<metadata>
Created by FontForge 20170924 at Wed May 16 17:52:46 2007
 By www-data
Copyright 1990-1999 as an unpublished work by Bitstream Inc.  All rights reserved.  Confidential.
</metadata>
<defs>
<font id="Swiss921BT-RegularA" horiz-adv-x="500" >
  <font-face 
    font-family="Swiss 921"
    font-weight="700"
    font-stretch="normal"
    units-per-em="1000"
    panose-1="0 0 0 0 0 0 0 0 0 0"
    ascent="800"
    descent="-200"
    x-height="641"
    cap-height="801"
    bbox="-167 -236 1047 1047"
    underline-thickness="110"
    underline-position="-213"
    unicode-range="U+0020-FB02"
  />
<missing-glyph horiz-adv-x="250" 
 />
    <glyph glyph-name=".notdef" horiz-adv-x="250" 
 />
    <glyph glyph-name=".null" horiz-adv-x="0" 
 />
    <glyph glyph-name="nonmarkingreturn" horiz-adv-x="333" 
 />
    <glyph glyph-name="space" unicode=" " horiz-adv-x="250" 
 />
    <glyph glyph-name="exclam" unicode="!" horiz-adv-x="257" 
d="M50 0v178h155v-178h-155zM83 227l-37 215v359h165v-359l-39 -215h-89z" />
    <glyph glyph-name="quotedbl" unicode="&#x22;" horiz-adv-x="348" 
d="M37 702h107v-274h-107v274zM203 702h109v-274h-109v274z" />
    <glyph glyph-name="numbersign" unicode="#" horiz-adv-x="769" 
d="M334 716h122l-68 -193h115l69 193h122l-68 -193h132l-42 -112h-131l-39 -112h135l-41 -113h-134l-69 -192h-122l68 192h-115l-69 -192h-122l68 192h-134l42 113h132l40 112h-138l42 112h136zM345 411l-40 -113h120l40 113h-120z" />
    <glyph glyph-name="dollar" unicode="$" 
d="M30 277h163v-63q0 -77 54 -77q24 0 39 17.5t15 45.5q0 48 -59 98q-118 99 -145 128q-58 64 -58 160q0 139 115 189v81h70v-65q4 0 13.5 0.5t15.5 0.5q12 0 25 -1v65h70v-80q108 -37 108 -181v-64h-156v53q0 72 -52 72q-22 0 -35 -15.5t-13 -40.5q0 -21 16 -44t33 -39.5
t63 -57.5q5 -5 25.5 -23t25.5 -22.5t21.5 -20t21 -21.5t16.5 -20.5t15.5 -23.5t11 -24t9.5 -28t4.5 -30t2.5 -35q0 -146 -117 -194v-114h-70v99q-26 -2 -40 -2h-14v-97h-70v112q-124 38 -124 204v58z" />
    <glyph glyph-name="percent" unicode="%" horiz-adv-x="748" 
d="M38 643q0 81 33.5 119.5t106.5 38.5t106 -38.5t33 -119.5v-105q0 -81 -33 -119.5t-106 -38.5t-106.5 38.5t-33.5 119.5v105zM624 801l-414 -810h-86l415 810h85zM151 681v-180q0 -32 27 -32q26 0 26 32v180q0 33 -26 33q-27 0 -27 -33zM544 291v-180q0 -32 27 -32
q26 0 26 32v180q0 32 -26 32q-27 0 -27 -32zM431 254q0 80 33.5 118.5t106.5 38.5t106 -38t33 -119v-106q0 -81 -33 -119t-106 -38t-106.5 38.5t-33.5 118.5v106z" />
    <glyph glyph-name="ampersand" unicode="&#x26;" horiz-adv-x="582" 
d="M312 167l-89 169q-49 -43 -49 -106q0 -43 20.5 -69t52.5 -26q31 0 65 32zM400 0l-25 50q-65 -62 -156 -62q-89 0 -145.5 63t-56.5 162q0 146 136 254q-62 105 -62 177q0 75 51.5 122.5t135.5 47.5q80 0 126 -42.5t46 -116.5q0 -119 -115 -208l70 -126q25 41 33 133h139
q-11 -176 -93 -280l94 -174h-178zM270 568q48 40 48 84q0 41 -40 41q-17 0 -28 -11t-11 -28q0 -33 31 -86z" />
    <glyph glyph-name="quotesingle" unicode="'" horiz-adv-x="181" 
d="M37 702h107v-274h-107v274z" />
    <glyph glyph-name="parenleft" unicode="(" horiz-adv-x="326" 
d="M291 -96q-114 14 -168 89.5t-54 218.5v314q0 122 59 195t163 84v-90q-33 -6 -51 -38t-18 -85v-433q0 -81 15 -119.5t54 -46.5v-89z" />
    <glyph glyph-name="parenright" unicode=")" horiz-adv-x="326" 
d="M35 -96v89q39 8 54 46.5t15 119.5v433q0 53 -18 85t-51 38v90q104 -11 163 -84t59 -195v-314q0 -143 -54 -218.5t-168 -89.5z" />
    <glyph glyph-name="asterisk" unicode="*" horiz-adv-x="375" 
d="M151 469v95l-77 -54l-43 61l93 65l-92 66l41 58l78 -54v95h74v-94l77 54l42 -61l-92 -65l92 -64l-41 -60l-78 55v-97h-74z" />
    <glyph glyph-name="plus" unicode="+" horiz-adv-x="833" 
d="M359 596h116v-241h234v-113h-234v-242h-116v242h-235v113h235v241z" />
    <glyph glyph-name="comma" unicode="," horiz-adv-x="250" 
d="M44 0v182h162v-149q0 -82 -74 -149h-88q71 63 82 116h-82z" />
    <glyph glyph-name="hyphen" unicode="-" horiz-adv-x="326" 
d="M33 253v153h260v-153h-260z" />
    <glyph glyph-name="period" unicode="." horiz-adv-x="250" 
d="M44 0v190h162v-190h-162z" />
    <glyph glyph-name="slash" unicode="/" horiz-adv-x="278" 
d="M-37 -93l267 905h83l-269 -905h-81z" />
    <glyph glyph-name="zero" unicode="0" 
d="M38 595q0 206 212 206t212 -206v-398q0 -206 -212 -206t-212 206v398zM214 614v-436q0 -48 36 -48t36 48v436q0 48 -36 48t-36 -48z" />
    <glyph glyph-name="one" unicode="1" 
d="M201 0v596q-50 -5 -65 -5h-57v121h3q98 0 143 80h150v-792h-174z" />
    <glyph glyph-name="two" unicode="2" 
d="M20 0v22q0 93 21.5 163.5t71.5 133.5q28 36 80 86.5t75 84.5t23 76v35q0 57 -41 57q-49 0 -49 -83v-63h-165v68q0 106 57.5 163.5t161.5 57.5t158.5 -53.5t54.5 -157.5q0 -44 -9 -79t-27.5 -65t-40 -55t-53.5 -58l-14 -14q-58 -61 -87 -98t-37 -71h263v-150h-443z" />
    <glyph glyph-name="three" unicode="3" 
d="M26 269h171v-54q0 -47 8.5 -65t38.5 -18q46 0 46 72v54q0 99 -99 99h-12v126h5q53 0 76 18.5t23 62.5v43q0 58 -39 58q-45 0 -45 -69v-44h-167v48q0 99 56 150t164 51q97 0 151 -47.5t54 -130.5v-64q0 -95 -87 -130q53 -21 74.5 -56.5t21.5 -95.5v-74q0 -101 -58 -156.5
t-168 -55.5q-214 0 -214 219v59z" />
    <glyph glyph-name="four" unicode="4" 
d="M250 0v154h-228v162q93 171 117 476h187q-36 -252 -201 -497h125v108q79 106 104 227h67v-335h60v-141h-60v-154h-171z" />
    <glyph glyph-name="five" unicode="5" 
d="M29 263h172v-65q0 -68 45 -68q43 0 43 55v167q0 64 -40 64q-41 0 -46 -55h-154v431h400v-146h-257v-122q46 38 109 38q81 0 124.5 -55t43.5 -162v-95q0 -135 -52 -197t-176 -62q-108 0 -160 55.5t-52 170.5v46z" />
    <glyph glyph-name="six" unicode="6" 
d="M291 597v17q0 49 -41 49t-41 -49v-101q43 36 104 36q149 0 149 -175v-177q0 -206 -212 -206t-212 206v398q0 206 212 206q103 0 157.5 -50t54.5 -144v-10h-171zM291 178v192q0 50 -41 50t-41 -50v-192q0 -50 41 -50t41 50z" />
    <glyph glyph-name="seven" unicode="7" 
d="M102 0q14 306 195 643h-282v149h457v-139q-161 -235 -180 -653h-190z" />
    <glyph glyph-name="eight" unicode="8" 
d="M464 197q0 -206 -214 -206t-214 206v65q0 69 19 109t63 58q-77 33 -77 127v39q0 206 209 206q210 0 210 -206v-39q0 -101 -89 -127q50 -13 71.5 -52.5t21.5 -114.5v-65zM209 312v-134q0 -49 41 -49t41 49v134q0 49 -41 49t-41 -49zM209 614v-74q0 -49 41 -49t41 49v74
q0 49 -41 49t-41 -49z" />
    <glyph glyph-name="nine" unicode="9" 
d="M209 614v-192q0 -50 41 -50t41 50v192q0 49 -41 49t-41 -49zM209 194v-16q0 -50 41 -50t41 50v101q-44 -37 -104 -37q-73 0 -111 44.5t-38 131.5v177q0 206 212 206t212 -206v-398q0 -206 -212 -206q-103 0 -157.5 49.5t-54.5 143.5v10h171z" />
    <glyph glyph-name="colon" unicode=":" horiz-adv-x="250" 
d="M44 402v182h162v-182h-162zM44 0v182h162v-182h-162z" />
    <glyph glyph-name="semicolon" unicode=";" horiz-adv-x="250" 
d="M44 402v182h162v-182h-162zM44 0v182h162v-149q0 -82 -74 -149h-88q71 63 82 116h-82z" />
    <glyph glyph-name="less" unicode="&#x3c;" horiz-adv-x="833" 
d="M704 593v-124l-417 -171l417 -170v-124l-575 237v114z" />
    <glyph glyph-name="equal" unicode="=" horiz-adv-x="833" 
d="M124 464h585v-113h-585v113zM124 245h585v-112h-585v112z" />
    <glyph glyph-name="greater" unicode="&#x3e;" horiz-adv-x="833" 
d="M129 593l575 -238v-114l-575 -237v124l417 170l-417 171v124z" />
    <glyph glyph-name="question" unicode="?" horiz-adv-x="472" 
d="M112 0v178h155v-178h-155zM121 226v36q0 101 71 193q8 10 31 38t32 41t18.5 37t9.5 48q0 69 -52 69q-24 0 -39 -22.5t-15 -61.5v-53h-158v50q0 96 62 154t163 58q94 0 152.5 -52.5t58.5 -138.5q0 -73 -43 -130q-22 -28 -60.5 -69.5t-51.5 -58.5q-49 -65 -49 -133v-5h-130
z" />
    <glyph glyph-name="at" unicode="@" horiz-adv-x="1000" 
d="M585 340q-9 76 -78 76q-50 0 -88.5 -59t-38.5 -140q0 -41 17 -63t48 -22q40 0 71.5 28.5t43.5 77.5zM567 128q-53 -77 -144 -77q-162 0 -162 168q0 119 69.5 198t170.5 79q75 0 112 -60l25 45h101l-75 -298q-2 -12 -2 -16q0 -29 31 -29q66 0 117 70t51 164q0 116 -87 190
t-229 74q-145 0 -246 -71q-76 -54 -117 -134t-41 -174q0 -148 99 -235.5t266 -87.5q164 0 291 91l47 -66q-152 -114 -338 -114q-190 0 -314 95q-152 118 -152 314q0 167 102 292q148 182 404 182q172 0 283 -87q132 -103 132 -268q0 -167 -125 -267q-70 -56 -161 -56
q-103 0 -108 78z" />
    <glyph glyph-name="A" unicode="A" horiz-adv-x="537" 
d="M224 289h87l-28 245q-5 45 -13 137q-6 -65 -15 -138zM2 0l148 801h243l146 -801h-193l-18 144h-125l-18 -144h-183z" />
    <glyph glyph-name="B" unicode="B" horiz-adv-x="539" 
d="M46 0v801h235q212 0 212 -164v-62q0 -58 -22 -94t-71 -57q58 -19 84 -55t26 -96v-70q0 -103 -58 -153t-177 -50h-229zM225 134q62 2 83 18.5t21 65.5v53q0 48 -23 66t-81 18v-221zM225 481q53 2 74 17t21 55v50q0 36 -21.5 49t-73.5 13v-184z" />
    <glyph glyph-name="C" unicode="C" horiz-adv-x="553" 
d="M515 236q0 -248 -238 -248q-239 0 -239 248v329q0 247 239 247q238 0 238 -247v-62h-183v91q0 38 -13 56.5t-43 18.5q-55 0 -55 -75v-388q0 -38 13 -56t43 -18q29 0 42 18t13 56v110h183v-80z" />
    <glyph glyph-name="D" unicode="D" horiz-adv-x="554" 
d="M46 801h224q139 0 192.5 -44t53.5 -173v-368q0 -62 -14 -102t-52 -71q-35 -28 -81 -35.5t-131 -7.5h-192v801zM250 664h-23v-527h23q49 0 66 13.5t17 61.5v377q0 48 -17 61.5t-66 13.5z" />
    <glyph glyph-name="E" unicode="E" horiz-adv-x="481" 
d="M46 0v801h405v-155h-224v-159h198v-153h-198v-179h231v-155h-412z" />
    <glyph glyph-name="F" unicode="F" horiz-adv-x="451" 
d="M46 0v801h383v-155h-202v-159h181v-153h-181v-334h-181z" />
    <glyph glyph-name="G" unicode="G" horiz-adv-x="558" 
d="M348 0l-1 62q-54 -74 -146 -74q-163 0 -163 248v329q0 247 239 247q238 0 238 -247v-38h-183v67q0 38 -13 56.5t-43 18.5q-55 0 -55 -75v-388q0 -38 13 -56t43 -18q29 0 42 18t13 56v90h-62v147h245v-443h-167z" />
    <glyph glyph-name="H" unicode="H" horiz-adv-x="560" 
d="M46 0v801h181v-296h106v296h181v-801h-181v349h-106v-349h-181z" />
    <glyph glyph-name="I" unicode="I" horiz-adv-x="273" 
d="M46 0v801h181v-801h-181z" />
    <glyph glyph-name="J" unicode="J" horiz-adv-x="508" 
d="M196 298v-97q0 -69 40 -69q43 0 43 69v600h183v-565q0 -248 -227 -248q-219 0 -219 248v62h180z" />
    <glyph glyph-name="K" unicode="K" horiz-adv-x="521" 
d="M46 0v801h179v-348q4 39 17 74l102 274h192l-163 -335l164 -466h-190l-85 297l-37 -72v-225h-179z" />
    <glyph glyph-name="L" unicode="L" horiz-adv-x="431" 
d="M46 0v801h181v-644h198v-157h-379z" />
    <glyph glyph-name="M" unicode="M" horiz-adv-x="764" 
d="M46 0v801h278l37 -254q13 -94 20 -215q10 146 19 208l41 261h277v-801h-174v293q0 184 5 390q-35 -221 -42 -265l-69 -418h-114l-68 400q-27 163 -42 283q6 -179 6 -387v-296h-174z" />
    <glyph glyph-name="N" unicode="N" horiz-adv-x="609" 
d="M46 0v801h203l94 -325q31 -106 59 -232q-16 117 -16 260v297h176v-801h-196l-104 344q-32 108 -56 233q16 -180 16 -317v-260h-176z" />
    <glyph glyph-name="O" unicode="O" horiz-adv-x="553" 
d="M38 565q0 247 239 247q238 0 238 -247v-329q0 -248 -238 -248q-239 0 -239 248v329zM221 594v-388q0 -38 13 -56t43 -18q29 0 42 18t13 56v388q0 38 -13 56.5t-43 18.5q-55 0 -55 -75z" />
    <glyph glyph-name="P" unicode="P" horiz-adv-x="542" 
d="M227 460q8 -1 23 -1q46 0 67 17t21 58v47q0 43 -21.5 60t-72.5 17h-17v-198zM46 0v801h257q217 0 217 -203v-78q0 -98 -50 -150.5t-143 -52.5h-100v-317h-181z" />
    <glyph glyph-name="Q" unicode="Q" horiz-adv-x="553" 
d="M38 565q0 247 239 247q238 0 238 -247v-329q0 -82 -23 -133.5t-80 -83.5l70 -112l-150 -19l-61 101q-233 4 -233 247v329zM221 594v-388q0 -38 13 -56t43 -18q29 0 42 18t13 56v388q0 38 -13 56.5t-43 18.5q-55 0 -55 -75z" />
    <glyph glyph-name="R" unicode="R" horiz-adv-x="549" 
d="M46 0v801h259q205 0 205 -179v-46q0 -61 -24 -97.5t-78 -56.5q53 -16 76 -52t23 -100v-185q0 -58 17 -85h-183q-13 24 -13 92v154q0 63 -19 83.5t-84 21.5v-351h-179zM225 478q57 2 80 16.5t23 54.5v45q0 41 -21 56t-75 15h-7v-187z" />
    <glyph glyph-name="S" unicode="S" horiz-adv-x="521" 
d="M22 277h179v-65q0 -80 59 -80q27 0 43.5 18t16.5 47q0 50 -62 100q-14 11 -44 34.5t-45.5 35.5t-37 30.5t-36.5 34.5q-63 65 -63 167q0 100 61.5 156.5t173.5 56.5q223 0 223 -204v-66h-171v55q0 75 -57 75q-24 0 -38.5 -16.5t-14.5 -42.5q0 -22 17 -46.5t37 -42
t70 -58.5q96 -80 119 -109q13 -15 20 -28q28 -51 28 -121q0 -103 -64 -161t-180 -58q-115 0 -174.5 58t-59.5 170v60z" />
    <glyph glyph-name="T" unicode="T" horiz-adv-x="417" 
d="M118 0v646h-118v155h417v-155h-118v-646h-181z" />
    <glyph glyph-name="U" unicode="U" horiz-adv-x="559" 
d="M225 801v-595q0 -38 12.5 -56t41.5 -18q55 0 55 74v595h181v-565q0 -248 -236 -248q-235 0 -235 248v565h181z" />
    <glyph glyph-name="V" unicode="V" horiz-adv-x="472" 
d="M120 0l-127 801h191l31 -329q5 -58 17 -271q7 84 26 272l34 328h187l-130 -801h-229z" />
    <glyph glyph-name="W" unicode="W" horiz-adv-x="782" 
d="M132 0l-137 801h190l34 -320q17 -151 28 -284q11 188 21 282l37 322h180l36 -318q8 -87 20 -286q6 98 28 290l36 314h185l-137 -801h-206l-37 340q-6 62 -15 229q-10 -111 -23 -232l-37 -337h-203z" />
    <glyph glyph-name="X" unicode="X" 
d="M-16 0l157 429l-146 372h199l38 -136q17 -61 22 -94q9 56 23 99l41 131h192l-151 -372l160 -429h-197l-53 174q-13 46 -20 94q-4 -33 -21 -92l-51 -176h-193z" />
    <glyph glyph-name="Y" unicode="Y" horiz-adv-x="454" 
d="M139 0v315l-153 486h192l31 -148q15 -77 20 -138q5 56 20 129l32 157h187l-148 -473v-328h-181z" />
    <glyph glyph-name="Z" unicode="Z" horiz-adv-x="479" 
d="M9 0v151l258 495h-244v155h445v-151l-258 -495h256v-155h-457z" />
    <glyph glyph-name="bracketleft" unicode="[" horiz-adv-x="326" 
d="M74 -97v898h220v-98h-72v-703h72v-97h-220z" />
    <glyph glyph-name="backslash" unicode="\" horiz-adv-x="278" 
d="M234 -93l-270 905h84l267 -905h-81z" />
    <glyph glyph-name="bracketright" unicode="]" horiz-adv-x="326" 
d="M252 -97h-219v97h71v703h-71v98h219v-898z" />
    <glyph glyph-name="asciicircum" unicode="^" horiz-adv-x="1000" 
d="M429 714h141l227 -275h-129l-168 167l-169 -167h-129z" />
    <glyph glyph-name="underscore" unicode="_" 
d="M0 -119h500v-117h-500v117z" />
    <glyph glyph-name="grave" unicode="`" 
d="M329 689h-70l-171 139h144z" />
    <glyph glyph-name="a" unicode="a" horiz-adv-x="487" 
d="M284 46q-58 -58 -125 -58q-61 0 -96 41.5t-35 112.5v51q0 122 119 177q11 5 31.5 14.5t29.5 13.5t23 11.5t20 13.5t13.5 14t10 17.5t2.5 20.5v23q0 17 -11.5 29t-27.5 12q-18 0 -29.5 -16.5t-11.5 -45.5v-40h-158v40q0 83 53 129.5t150 46.5q109 0 156 -46t47 -144v-463
h-158zM277 320q-47 -26 -63 -46t-16 -57v-65q0 -32 5.5 -45.5t25.5 -13.5q48 0 48 80v147z" />
    <glyph glyph-name="b" unicode="b" horiz-adv-x="493" 
d="M212 217q0 -53 8 -77t32 -24q34 0 34 49v312q0 49 -34 49q-24 0 -32 -24t-8 -77v-208zM43 0v801h169v-222q45 74 124 74q122 0 122 -157v-350q0 -158 -122 -158q-86 0 -131 84v-72h-162z" />
    <glyph glyph-name="c" unicode="c" horiz-adv-x="488" 
d="M282 477q0 27 -8.5 40t-29.5 13q-38 0 -38 -53v-313q0 -27 8.5 -40t29.5 -13t29.5 12.5t8.5 40.5v108h172v-84q0 -200 -210 -200q-209 0 -209 200v265q0 200 209 200q210 0 210 -200v-55h-172v79z" />
    <glyph glyph-name="d" unicode="d" horiz-adv-x="493" 
d="M450 0h-162v72q-45 -84 -131 -84q-122 0 -122 158v350q0 157 122 157q79 0 124 -74v222h169v-801zM281 217v208q0 54 -7.5 77.5t-32.5 23.5q-34 0 -34 -49v-312q0 -49 34 -49q24 0 32 24t8 77z" />
    <glyph glyph-name="e" unicode="e" horiz-adv-x="488" 
d="M206 164q0 -27 8.5 -40t29.5 -13t29.5 12.5t8.5 40.5v75h172v-51q0 -200 -210 -200q-209 0 -209 200v265q0 200 209 200q210 0 210 -200v-161h-248v-128zM206 477v-68h76v68q0 27 -8.5 40t-29.5 13q-38 0 -38 -53z" />
    <glyph glyph-name="f" unicode="f" horiz-adv-x="269" 
d="M49 0v509h-42v122h42v11q0 89 31 124t114 35h67v-116h-4q-25 0 -35 -9.5t-10 -35.5v-9h49v-122h-46v-509h-166z" />
    <glyph glyph-name="g" unicode="g" 
d="M281 425q0 54 -7.5 77.5t-32.5 23.5q-35 0 -35 -49v-234q0 -49 35 -49q24 0 32 24t8 77v130zM281 141q-45 -74 -124 -74q-123 0 -123 157v272q0 157 123 157q85 0 130 -84v72h163v-547q0 -108 -50 -159t-161 -51q-94 0 -143.5 36t-51.5 105h161v-3q0 -36 32 -36
q25 0 34.5 18.5t9.5 61.5v75z" />
    <glyph glyph-name="h" unicode="h" 
d="M43 0v801h169v-236q56 88 132 88q55 0 84.5 -40t29.5 -117v-496h-169v445q0 50 -35 50q-24 0 -33 -19t-9 -57v-419h-169z" />
    <glyph glyph-name="i" unicode="i" horiz-adv-x="259" 
d="M45 0v641h169v-641h-169zM45 677v124h169v-124h-169z" />
    <glyph glyph-name="j" unicode="j" horiz-adv-x="252" 
d="M45 677v124h169v-124h-169zM214 42q0 -82 -29.5 -120t-98.5 -38h-88v127h22q16 0 20.5 12t4.5 43v575h169v-599z" />
    <glyph glyph-name="k" unicode="k" horiz-adv-x="471" 
d="M43 0v801h169v-440l93 280h175l-106 -276l109 -365h-176l-95 348v-348h-169z" />
    <glyph glyph-name="l" unicode="l" horiz-adv-x="259" 
d="M45 0v801h169v-801h-169z" />
    <glyph glyph-name="m" unicode="m" horiz-adv-x="756" 
d="M43 0v641h160v-76q47 88 137 88q46 0 76 -23.5t38 -64.5q47 88 138 88q122 0 122 -157v-496h-169v445q0 50 -38 50q-26 0 -35 -18.5t-9 -57.5v-419h-169v445q0 50 -38 50q-26 0 -35 -18.5t-9 -57.5v-419h-169z" />
    <glyph glyph-name="n" unicode="n" 
d="M43 0v641h160v-76q46 88 133 88q122 0 122 -157v-496h-169v445q0 50 -35 50q-24 0 -33 -19t-9 -57v-419h-169z" />
    <glyph glyph-name="o" unicode="o" horiz-adv-x="488" 
d="M35 453q0 200 209 200q210 0 210 -200v-265q0 -200 -210 -200q-209 0 -209 200v265zM282 164v313q0 27 -8.5 40t-29.5 13q-38 0 -38 -53v-313q0 -27 8.5 -40t29.5 -13t29.5 12.5t8.5 40.5z" />
    <glyph glyph-name="p" unicode="p" horiz-adv-x="493" 
d="M212 425v-209q0 -53 8 -77t32 -24q34 0 34 50v312q0 49 -34 49q-24 0 -32 -24t-8 -77zM43 641h162v-72q44 84 131 84q122 0 122 -157v-350q0 -158 -122 -158q-79 0 -124 74v-178h-169v757z" />
    <glyph glyph-name="q" unicode="q" horiz-adv-x="493" 
d="M281 425q0 54 -7.5 77.5t-32.5 23.5q-34 0 -34 -49v-312q0 -50 34 -50q24 0 32 24t8 77v209zM450 641v-757h-169v178q-45 -74 -124 -74q-122 0 -122 158v350q0 157 122 157q86 0 131 -84v72h162z" />
    <glyph glyph-name="r" unicode="r" horiz-adv-x="339" 
d="M43 0v641h160v-109q44 119 121 121v-208q-64 -1 -88 -28.5t-24 -94.5v-322h-169z" />
    <glyph glyph-name="s" unicode="s" horiz-adv-x="433" 
d="M21 208h154v-37q0 -62 38 -62q17 0 27.5 13.5t10.5 36.5q0 16 -9 31t-18 23t-36 30q-8 6 -37 30t-36 30.5l-28 26t-27 30.5t-17 30.5t-14 38.5t-3 42q0 84 53.5 133.5t143.5 49.5q87 0 135 -45.5t48 -128.5v-29h-153v28q0 57 -36 57q-16 0 -26.5 -11.5t-10.5 -30.5
q0 -12 4.5 -23t17.5 -24t23 -21.5t35 -28.5t39 -31q62 -50 88.5 -92t26.5 -102q0 -84 -54.5 -134t-149.5 -50q-89 0 -139 47t-50 130v43z" />
    <glyph glyph-name="t" unicode="t" horiz-adv-x="274" 
d="M261 120v-126q-33 -6 -67 -6q-48 0 -77 10t-44 35.5t-19.5 56.5t-4.5 86v332h-42v122h42v134h166v-134h46v-122h-49v-354q0 -34 45 -34h4z" />
    <glyph glyph-name="u" unicode="u" 
d="M457 641v-641h-160v76q-46 -88 -133 -88q-123 0 -123 158v495h170v-445q0 -49 35 -49q24 0 33 18.5t9 56.5v419h169z" />
    <glyph glyph-name="v" unicode="v" horiz-adv-x="431" 
d="M117 0l-118 641h179l23 -263q2 -34 15 -199q8 122 16 200l27 262h171l-116 -641h-197z" />
    <glyph glyph-name="w" unicode="w" horiz-adv-x="685" 
d="M118 0l-122 641h176l29 -280q13 -118 19 -196q9 117 17 199l29 277h157l24 -273q0 -5 6 -71.5t11 -131.5q9 90 22 207l32 269h173l-124 -641h-181l-27 245q-14 130 -19 193q-14 -155 -18 -188l-28 -250h-176z" />
    <glyph glyph-name="x" unicode="x" horiz-adv-x="442" 
d="M-17 0l143 333l-132 308h186l24 -92q16 -69 20 -101q5 53 19 102l26 91h181l-131 -305l139 -336h-190l-27 101q-14 52 -22 120q-9 -76 -22 -120l-30 -101h-184z" />
    <glyph glyph-name="y" unicode="y" horiz-adv-x="422" 
d="M47 -116v127h27q39 0 39 24q0 16 -7 50l-109 556h178l23 -273q7 -80 16 -211q5 50 11 122t8 90l25 272h170l-113 -591q-18 -96 -56.5 -131t-127.5 -35h-84z" />
    <glyph glyph-name="z" unicode="z" horiz-adv-x="421" 
d="M16 0v142l199 365h-191v134h381v-128l-207 -379h208v-134h-390z" />
    <glyph glyph-name="braceleft" unicode="{" 
d="M436 721v-118q-4 0 -10.5 0.5t-9.5 0.5q-50 0 -65.5 -18.5t-15.5 -70.5v-117q0 -66 -21 -96.5t-82 -42.5q61 -12 82 -42t21 -96v-118q0 -52 15.5 -70t64.5 -18q3 0 10 0.5t11 0.5v-118q-7 0 -20.5 -0.5t-19.5 -0.5q-101 0 -146 24q-33 17 -42.5 47.5t-9.5 89.5v125
q0 65 -24 91.5t-82 26.5q-2 0 -8.5 -0.5t-9.5 -0.5v118q3 0 9 -0.5t9 -0.5q58 0 82 27.5t24 91.5v124q0 59 9.5 90t42.5 48q45 24 147 24q6 0 19 -0.5t20 -0.5z" />
    <glyph glyph-name="bar" unicode="|" 
d="M192 764h117v-1000h-117v1000z" />
    <glyph glyph-name="braceright" unicode="}" 
d="M65 721q7 0 20 0.5t19 0.5q100 0 147 -24q33 -17 42.5 -48t9.5 -90v-124q0 -65 24 -92t82 -27q3 0 9 0.5t9 0.5v-118q-3 0 -9 0.5t-9 0.5q-58 0 -82 -27t-24 -91v-125q0 -59 -9.5 -90t-42.5 -48q-42 -23 -142 -23q-7 0 -21.5 0.5t-22.5 0.5v118q4 0 11 -0.5t10 -0.5
q50 0 65 18t15 70v118q0 65 21 95.5t82 42.5q-61 12 -82 42.5t-21 96.5v117q0 52 -15 70.5t-63 18.5q-3 0 -11 -0.5t-12 -0.5v118z" />
    <glyph glyph-name="asciitilde" unicode="~" horiz-adv-x="833" 
d="M747 400v-124q-97 -67 -184 -67q-45 0 -84 14q-5 2 -23.5 8.5t-24 8t-22 7t-23.5 7.5t-21.5 6t-23.5 5.5t-21.5 4t-23.5 3t-22 0.5q-79 0 -187 -77v124q108 70 189 70q58 0 144 -28q8 -3 27.5 -10t30.5 -10l27.5 -7.5t31 -6.5t29.5 -2q79 0 181 74z" />
    <glyph glyph-name="exclamdown" unicode="&#xa1;" horiz-adv-x="257" 
d="M174 574l37 -215v-359h-165v359l39 215h89zM207 801v-178h-155v178h155z" />
    <glyph glyph-name="cent" unicode="&#xa2;" 
d="M288 477q0 27 -8.5 40t-29.5 13q-38 0 -38 -53v-313q0 -27 8.5 -40t29.5 -13t29.5 12.5t8.5 40.5v108h171v-84q0 -92 -42.5 -140.5t-131.5 -56.5v-74h-77v74q-168 19 -168 197v265q0 178 168 198v79h77v-79q89 -9 131.5 -57.5t42.5 -140.5v-55h-171v79z" />
    <glyph glyph-name="sterling" unicode="&#xa3;" 
d="M32 -7l8 157q36 10 57.5 45.5t21.5 85.5q0 21 -3 50h-86v83h65q-51 97 -51 181q0 88 65 146.5t170 58.5q90 0 143 -50t53 -134v-68h-163v47q0 69 -44 69q-22 0 -35 -16.5t-13 -42.5q0 -27 6.5 -57t18 -69.5t16.5 -64.5h128v-83h-120q0 -99 -81 -184q26 0 58.5 -5.5
t39.5 -5.5q47 0 48 69h151v-10q0 -100 -46 -152t-133 -52q-30 0 -89.5 12t-91.5 12q-58 0 -93 -22z" />
    <glyph glyph-name="currency" unicode="&#xa4;" 
d="M462 197q0 -206 -199 -206t-199 206v117h-64l17 52h47v60h-64l17 52h47v117q0 206 199 206t199 -206v-72h-165v91q0 48 -34 48t-34 -48v-136h171l-17 -52h-154v-60h134l-17 -52h-117v-136q0 -48 34 -48t34 48v91h165v-72z" />
    <glyph glyph-name="yen" unicode="&#xa5;" 
d="M485 792l-91 -289h87v-54h-104l-26 -84h130v-54h-143v-311h-172v311h-147v54h131l-27 84h-104v54h88l-92 289h187l30 -145q14 -69 20 -137q5 55 19 128l32 154h182z" />
    <glyph glyph-name="brokenbar" unicode="&#xa6;" 
d="M192 699h117v-370h-117v370zM192 199h117v-370h-117v370z" />
    <glyph glyph-name="section" unicode="&#xa7;" horiz-adv-x="491" 
d="M318 275q15 24 15 47q0 21 -16 38t-66 49.5t-79 54.5q-20 -25 -20 -45q0 -11 3.5 -20t12 -19t17 -17.5t25.5 -19t30 -19.5t37 -23t41 -26zM44 111h154v-5q0 -85 49 -85q19 0 31 14t12 38q0 14 -4 24.5t-18.5 22.5t-24.5 19t-39.5 24t-46.5 28q-70 44 -102.5 85t-32.5 103
q0 95 75 157q-38 41 -38 106q0 78 53.5 124t149.5 46q183 0 183 -176v-17h-153v10q0 69 -44 69q-16 0 -27.5 -13t-11.5 -32q0 -13 4 -23t20.5 -23t24.5 -18t39 -24q93 -57 132 -100t39 -109q0 -88 -68 -148q48 -49 48 -120q0 -80 -57.5 -130t-154.5 -50q-94 0 -143 48
t-49 141v14z" />
    <glyph glyph-name="dieresis" unicode="&#xa8;" 
d="M104 694v128h119v-128h-119zM277 694v128h119v-128h-119z" />
    <glyph glyph-name="copyright" unicode="&#xa9;" horiz-adv-x="833" 
d="M416 725q153 0 260 -107q105 -105 105 -258q0 -154 -104 -256q-111 -109 -261 -109q-149 0 -257 108q-107 107 -107 257q0 149 108 259q104 106 256 106zM417 659q-125 0 -210 -87q-89 -91 -89 -212t89 -210q88 -88 210 -88t213 89q85 83 85 209q0 125 -86 211
q-88 88 -212 88zM596 435h-104q-3 33 -23 51t-53 18q-40 0 -63 -37t-23 -106q0 -139 91 -139q32 0 51.5 19.5t22.5 56.5h105q-3 -70 -52.5 -112.5t-128.5 -42.5q-93 0 -147 57.5t-54 156.5q0 101 54.5 160.5t145.5 59.5q77 0 125.5 -39t52.5 -103z" />
    <glyph glyph-name="ordfeminine" unicode="&#xaa;" horiz-adv-x="365" 
d="M213 384q-43 -40 -94 -40q-45 0 -71.5 29t-26.5 78v36q0 85 89 124q8 4 24 10.5t22 9t17 8t15.5 9.5t10 9.5t7.5 12t2 14.5v17q0 12 -8.5 20t-20.5 8q-31 0 -31 -43v-28h-119v28q0 58 40 90.5t113 32.5q82 0 117 -32t35 -101v-324h-119zM208 576q-35 -18 -47 -32t-12 -40
v-46q0 -15 1 -22.5t6.5 -13t15.5 -5.5q36 0 36 56v103z" />
    <glyph glyph-name="guillemotleft" unicode="&#xab;" horiz-adv-x="481" 
d="M453 185h-133l-100 145l100 145h133l-103 -145zM268 185h-133l-100 145l100 145h133l-103 -145z" />
    <glyph glyph-name="logicalnot" unicode="&#xac;" horiz-adv-x="833" 
d="M124 423h585v-245h-112v134h-473v111z" />
    <glyph glyph-name="registered" unicode="&#xae;" horiz-adv-x="833" 
d="M416 725q156 0 263 -110q102 -104 102 -255q0 -156 -108 -259q-111 -106 -257 -106q-151 0 -259 111q-105 108 -105 254q0 153 111 262q105 103 253 103zM417 659q-122 0 -208 -84q-90 -90 -90 -215q0 -120 85 -207q88 -91 212 -91q122 0 211 86q88 85 88 212
q0 123 -84 209q-88 90 -214 90zM262 568h161q173 0 173 -116q0 -39 -22.5 -67.5t-62.5 -40.5l89 -176h-121l-75 159h-32v-159h-110v400zM372 499v-107h39q72 0 72 52q0 55 -78 55h-33z" />
    <glyph glyph-name="macron" unicode="&#xaf;" 
d="M104 719v79h292v-79h-292z" />
    <glyph glyph-name="degree" unicode="&#xb0;" horiz-adv-x="329" 
d="M165 716q63 0 107.5 -44.5t44.5 -107.5q0 -62 -44.5 -107t-108.5 -45q-63 0 -107 44t-44 108t44.5 108t107.5 44zM165 645q-33 0 -57 -23.5t-24 -56.5q0 -34 23.5 -57.5t57.5 -23.5q33 0 56.5 24t23.5 57t-23 56.5t-57 23.5z" />
    <glyph glyph-name="plusminus" unicode="&#xb1;" horiz-adv-x="833" 
d="M359 606h116v-156h234v-113h-234v-156h-116v156h-235v113h235v156zM124 104h585v-113h-585v113z" />
    <glyph glyph-name="twosuperior" unicode="&#xb2;" horiz-adv-x="330" 
d="M13 317v13q0 109 62 178q19 22 53 52t49 51t15 46v21q0 34 -27 34q-32 0 -32 -50v-38h-109v41q0 64 38 98.5t106 34.5q69 0 105 -32.5t36 -94.5q0 -49 -19.5 -79.5t-64.5 -73.5q-7 -6 -11 -10q-73 -68 -82 -101h174v-90h-293z" />
    <glyph glyph-name="threesuperior" unicode="&#xb3;" horiz-adv-x="330" 
d="M17 478h113v-32q0 -28 5.5 -39t25.5 -11q30 0 30 43v33q0 59 -65 59h-8v76h3q35 0 50.5 11t15.5 37v26q0 35 -26 35q-30 0 -30 -41v-27h-110v29q0 121 145 121q64 0 100 -28.5t36 -78.5v-39q0 -56 -58 -78q35 -13 49.5 -34t14.5 -57v-44q0 -61 -38.5 -94t-111.5 -33
q-141 0 -141 131v35z" />
    <glyph glyph-name="acute" unicode="&#xb4;" 
d="M171 689l97 139h144l-171 -139h-70z" />
    <glyph glyph-name="mu" unicode="&#xb5;" horiz-adv-x="642" 
d="M94 532h175l-39 -258q-6 -41 -6 -70q0 -83 70 -83q44 0 68.5 34t35.5 107l43 270h174l-85 -532h-157l9 61q-37 -69 -102 -69q-60 0 -90 59l-40 -260h-172z" />
    <glyph glyph-name="paragraph" unicode="&#xb6;" 
d="M487 722v-60h-52v-662h-85v662h-74v-662h-85v383q-81 3 -129 49.5t-48 119.5q0 76 51.5 123t138.5 47h283z" />
    <glyph glyph-name="periodcentered" unicode="&#xb7;" horiz-adv-x="250" 
d="M32 396q0 39 27.5 66t65.5 27q39 0 66 -27t27 -66q0 -38 -27 -65.5t-66 -27.5q-37 0 -65 27.5t-28 65.5z" />
    <glyph glyph-name="cedilla" unicode="&#xb8;" 
d="M133 -121l98 121h103l-56 -121h-145z" />
    <glyph glyph-name="onesuperior" unicode="&#xb9;" horiz-adv-x="330" 
d="M133 317v358q-30 -3 -43 -3h-38v72h2q65 0 94 48h99v-475h-114z" />
    <glyph glyph-name="ordmasculine" unicode="&#xba;" horiz-adv-x="366" 
d="M26 669q0 140 157 140q158 0 158 -140v-185q0 -140 -158 -140q-157 0 -157 140v185zM212 467v219q0 37 -29 37q-28 0 -28 -37v-219q0 -20 6 -28.5t22 -8.5q29 0 29 37z" />
    <glyph glyph-name="guillemotright" unicode="&#xbb;" horiz-adv-x="481" 
d="M28 185l103 145l-103 145h133l101 -145l-101 -145h-133zM214 185l103 145l-103 145h133l100 -145l-100 -145h-133z" />
    <glyph glyph-name="onequarter" unicode="&#xbc;" horiz-adv-x="797" 
d="M127 348v334q-29 -3 -41 -3h-36v68h2q63 0 90 45h95v-444h-110zM648 801l-414 -810h-86l415 810h85zM639 0v86h-143v91q58 95 74 267h117q-23 -142 -126 -279h78v61q50 58 66 127h42v-188h38v-79h-38v-86h-108z" />
    <glyph glyph-name="onehalf" unicode="&#xbd;" horiz-adv-x="797" 
d="M127 348v334q-29 -3 -41 -3h-36v68h2q63 0 90 45h95v-444h-110zM648 801l-414 -810h-86l415 810h85zM495 0v12q0 101 58 167q18 20 50.5 48t47 47.5t14.5 42.5v20q0 31 -26 31q-30 0 -30 -46v-35h-104v38q0 59 36 91.5t102 32.5q65 0 99.5 -30.5t34.5 -88.5
q0 -34 -13.5 -62t-27.5 -42t-50 -47q-69 -66 -78 -95h166v-84h-279z" />
    <glyph glyph-name="threequarters" unicode="&#xbe;" horiz-adv-x="797" 
d="M16 499h108v-31q0 -26 5.5 -36t24.5 -10q29 0 29 40v30q0 56 -63 56h-7v70h3q33 0 47.5 10.5t14.5 35.5v24q0 32 -24 32q-29 0 -29 -38v-25h-105v27q0 113 139 113q61 0 95 -26.5t34 -73.5v-36q0 -52 -55 -73q33 -12 47 -31.5t14 -53.5v-41q0 -57 -37 -88t-106 -31
q-135 0 -135 123v33zM648 801l-414 -810h-86l415 810h85zM639 0v86h-143v91q58 95 74 267h117q-23 -142 -126 -279h78v61q50 58 66 127h42v-188h38v-79h-38v-86h-108z" />
    <glyph glyph-name="questiondown" unicode="&#xbf;" horiz-adv-x="472" 
d="M361 801v-178h-155v178h155zM352 575v-36q0 -92 -54 -170q-13 -19 -46 -58t-47.5 -67t-14.5 -62q0 -69 52 -69q24 0 39 22.5t15 61.5v53h159v-50q0 -96 -62 -154t-164 -58q-95 0 -153 52.5t-58 137.5q0 74 43 131q22 28 60.5 69.5t51.5 58.5q49 65 49 133v5h130z" />
    <glyph glyph-name="Agrave" unicode="&#xc0;" horiz-adv-x="537" 
d="M224 289h87l-28 245q-5 45 -13 137q-6 -65 -15 -138zM2 0l148 801h243l146 -801h-193l-18 144h-125l-18 -144h-183zM348 849h-70l-171 139h144z" />
    <glyph glyph-name="Aacute" unicode="&#xc1;" horiz-adv-x="537" 
d="M224 289h87l-28 245q-5 45 -13 137q-6 -65 -15 -138zM2 0l148 801h243l146 -801h-193l-18 144h-125l-18 -144h-183zM190 849l97 139h144l-171 -139h-70z" />
    <glyph glyph-name="Acircumflex" unicode="&#xc2;" horiz-adv-x="537" 
d="M224 289h87l-28 245q-5 45 -13 137q-6 -65 -15 -138zM2 0l148 801h243l146 -801h-193l-18 144h-125l-18 -144h-183zM114 849l97 139h116l97 -139h-70l-85 73l-85 -73h-70z" />
    <glyph glyph-name="Atilde" unicode="&#xc3;" horiz-adv-x="537" 
d="M224 289h87l-28 245q-5 45 -13 137q-6 -65 -15 -138zM2 0l148 801h243l146 -801h-193l-18 144h-125l-18 -144h-183zM161 855h-49q24 113 100 113q14 0 34 -5l63 -16q12 -3 25 -3q34 0 43 38h49q-21 -116 -108 -116q-9 0 -25 4l-67 17q-9 3 -20 3q-36 0 -45 -35z" />
    <glyph glyph-name="Adieresis" unicode="&#xc4;" horiz-adv-x="537" 
d="M224 289h87l-28 245q-5 45 -13 137q-6 -65 -15 -138zM2 0l148 801h243l146 -801h-193l-18 144h-125l-18 -144h-183zM123 854v128h119v-128h-119zM296 854v128h119v-128h-119z" />
    <glyph glyph-name="Aring" unicode="&#xc5;" horiz-adv-x="537" 
d="M224 289h87l-28 245q-5 45 -13 137q-6 -65 -15 -138zM2 0l148 801h243l146 -801h-193l-18 144h-125l-18 -144h-183zM158 935q0 46 33 79t79 33t79 -33t33 -79q0 -47 -32.5 -79.5t-79.5 -32.5q-46 0 -79 33t-33 79zM228 934q0 -17 12 -29.5t30 -12.5t30 12.5t12 29.5
q0 19 -12 31t-30 12t-30 -12.5t-12 -30.5z" />
    <glyph glyph-name="AE" unicode="&#xc6;" horiz-adv-x="753" 
d="M-12 0l204 801h535v-154h-212v-157h194v-156h-194v-179h219v-155h-395v155h-126l-36 -155h-189zM339 307v377h-4l-89 -377h93z" />
    <glyph glyph-name="Ccedilla" unicode="&#xc7;" horiz-adv-x="553" 
d="M515 236q0 -248 -238 -248q-239 0 -239 248v329q0 247 239 247q238 0 238 -247v-62h-183v91q0 38 -13 56.5t-43 18.5q-55 0 -55 -75v-388q0 -38 13 -56t43 -18q29 0 42 18t13 56v110h183v-80zM160 -121l98 121h103l-56 -121h-145z" />
    <glyph glyph-name="Egrave" unicode="&#xc8;" horiz-adv-x="481" 
d="M46 0v801h405v-155h-224v-159h198v-153h-198v-179h231v-155h-412zM329 849h-70l-171 139h144z" />
    <glyph glyph-name="Eacute" unicode="&#xc9;" horiz-adv-x="481" 
d="M46 0v801h405v-155h-224v-159h198v-153h-198v-179h231v-155h-412zM171 849l97 139h144l-171 -139h-70z" />
    <glyph glyph-name="Ecircumflex" unicode="&#xca;" horiz-adv-x="481" 
d="M46 0v801h405v-155h-224v-159h198v-153h-198v-179h231v-155h-412zM95 849l97 139h116l97 -139h-70l-85 73l-85 -73h-70z" />
    <glyph glyph-name="Edieresis" unicode="&#xcb;" horiz-adv-x="481" 
d="M46 0v801h405v-155h-224v-159h198v-153h-198v-179h231v-155h-412zM104 854v128h119v-128h-119zM277 854v128h119v-128h-119z" />
    <glyph glyph-name="Igrave" unicode="&#xcc;" horiz-adv-x="273" 
d="M46 0v801h181v-801h-181zM216 849h-70l-171 139h144z" />
    <glyph glyph-name="Iacute" unicode="&#xcd;" horiz-adv-x="273" 
d="M46 0v801h181v-801h-181zM58 849l97 139h144l-171 -139h-70z" />
    <glyph glyph-name="Icircumflex" unicode="&#xce;" horiz-adv-x="273" 
d="M46 0v801h181v-801h-181zM-18 849l97 139h116l97 -139h-70l-85 73l-85 -73h-70z" />
    <glyph glyph-name="Idieresis" unicode="&#xcf;" horiz-adv-x="273" 
d="M46 0v801h181v-801h-181zM-9 854v128h119v-128h-119zM164 854v128h119v-128h-119z" />
    <glyph glyph-name="Eth" unicode="&#xd0;" horiz-adv-x="559" 
d="M51 801h223q139 0 193 -44t54 -173v-368q0 -62 -14 -102t-52 -71q-35 -28 -81.5 -35.5t-131.5 -7.5h-191v387h-46v83h46v331zM254 664h-23v-194h54v-83h-54v-250h23q49 0 66.5 13.5t17.5 61.5v377q0 48 -17.5 61.5t-66.5 13.5z" />
    <glyph glyph-name="Ntilde" unicode="&#xd1;" horiz-adv-x="609" 
d="M46 0v801h203l94 -325q31 -106 59 -232q-16 117 -16 260v297h176v-801h-196l-104 344q-32 108 -56 233q16 -180 16 -317v-260h-176zM204 855h-49q24 113 100 113q14 0 34 -5l63 -16q12 -3 25 -3q34 0 43 38h49q-21 -116 -108 -116q-9 0 -25 4l-67 17q-9 3 -20 3
q-36 0 -45 -35z" />
    <glyph glyph-name="Ograve" unicode="&#xd2;" horiz-adv-x="553" 
d="M38 565q0 247 239 247q238 0 238 -247v-329q0 -248 -238 -248q-239 0 -239 248v329zM221 594v-388q0 -38 13 -56t43 -18q29 0 42 18t13 56v388q0 38 -13 56.5t-43 18.5q-55 0 -55 -75zM356 849h-70l-171 139h144z" />
    <glyph glyph-name="Oacute" unicode="&#xd3;" horiz-adv-x="553" 
d="M38 565q0 247 239 247q238 0 238 -247v-329q0 -248 -238 -248q-239 0 -239 248v329zM221 594v-388q0 -38 13 -56t43 -18q29 0 42 18t13 56v388q0 38 -13 56.5t-43 18.5q-55 0 -55 -75zM198 849l97 139h144l-171 -139h-70z" />
    <glyph glyph-name="Ocircumflex" unicode="&#xd4;" horiz-adv-x="553" 
d="M38 565q0 247 239 247q238 0 238 -247v-329q0 -248 -238 -248q-239 0 -239 248v329zM221 594v-388q0 -38 13 -56t43 -18q29 0 42 18t13 56v388q0 38 -13 56.5t-43 18.5q-55 0 -55 -75zM122 849l97 139h116l97 -139h-70l-85 73l-85 -73h-70z" />
    <glyph glyph-name="Otilde" unicode="&#xd5;" horiz-adv-x="553" 
d="M38 565q0 247 239 247q238 0 238 -247v-329q0 -248 -238 -248q-239 0 -239 248v329zM221 594v-388q0 -38 13 -56t43 -18q29 0 42 18t13 56v388q0 38 -13 56.5t-43 18.5q-55 0 -55 -75zM169 855h-49q24 113 100 113q14 0 34 -5l63 -16q12 -3 25 -3q34 0 43 38h49
q-21 -116 -108 -116q-9 0 -25 4l-67 17q-9 3 -20 3q-36 0 -45 -35z" />
    <glyph glyph-name="Odieresis" unicode="&#xd6;" horiz-adv-x="553" 
d="M38 565q0 247 239 247q238 0 238 -247v-329q0 -248 -238 -248q-239 0 -239 248v329zM221 594v-388q0 -38 13 -56t43 -18q29 0 42 18t13 56v388q0 38 -13 56.5t-43 18.5q-55 0 -55 -75zM131 854v128h119v-128h-119zM304 854v128h119v-128h-119z" />
    <glyph glyph-name="multiply" unicode="&#xd7;" horiz-adv-x="833" 
d="M210 593l215 -215l215 215l79 -79l-215 -216l215 -215l-79 -79l-215 215l-215 -215l-79 79l215 215l-215 216z" />
    <glyph glyph-name="Oslash" unicode="&#xd8;" horiz-adv-x="553" 
d="M38 565q0 247 239 247q104 0 163 -49l34 64l57 -30l-46 -85q30 -47 30 -147v-329q0 -248 -238 -248q-103 0 -162 48l-37 -63l-57 31l48 85q-31 54 -31 147v329zM332 206v227l-111 -208v-19q0 -38 13 -56t43 -18q29 0 42 18t13 56zM221 594v-232l111 207v25q0 38 -13 56.5
t-43 18.5q-55 0 -55 -75z" />
    <glyph glyph-name="Ugrave" unicode="&#xd9;" horiz-adv-x="559" 
d="M225 801v-595q0 -38 12.5 -56t41.5 -18q55 0 55 74v595h181v-565q0 -248 -236 -248q-235 0 -235 248v565h181zM359 849h-70l-171 139h144z" />
    <glyph glyph-name="Uacute" unicode="&#xda;" horiz-adv-x="559" 
d="M225 801v-595q0 -38 12.5 -56t41.5 -18q55 0 55 74v595h181v-565q0 -248 -236 -248q-235 0 -235 248v565h181zM201 849l97 139h144l-171 -139h-70z" />
    <glyph glyph-name="Ucircumflex" unicode="&#xdb;" horiz-adv-x="559" 
d="M225 801v-595q0 -38 12.5 -56t41.5 -18q55 0 55 74v595h181v-565q0 -248 -236 -248q-235 0 -235 248v565h181zM125 849l97 139h116l97 -139h-70l-85 73l-85 -73h-70z" />
    <glyph glyph-name="Udieresis" unicode="&#xdc;" horiz-adv-x="559" 
d="M225 801v-595q0 -38 12.5 -56t41.5 -18q55 0 55 74v595h181v-565q0 -248 -236 -248q-235 0 -235 248v565h181zM134 854v128h119v-128h-119zM307 854v128h119v-128h-119z" />
    <glyph glyph-name="Yacute" unicode="&#xdd;" horiz-adv-x="454" 
d="M139 0v315l-153 486h192l31 -148q15 -77 20 -138q5 56 20 129l32 157h187l-148 -473v-328h-181zM148 849l97 139h144l-171 -139h-70z" />
    <glyph glyph-name="Thorn" unicode="&#xde;" horiz-adv-x="542" 
d="M46 801h181v-144h76q110 0 163.5 -49.5t53.5 -152.5v-78q0 -98 -50 -151t-143 -53h-100v-173h-181v801zM227 514v-197q8 -1 23 -1q46 0 67 17t21 58v47q0 43 -21 59.5t-72 16.5h-18z" />
    <glyph glyph-name="germandbls" unicode="&#xdf;" horiz-adv-x="506" 
d="M43 0v617q0 184 213 184q93 0 146 -42t53 -111v-52q0 -86 -71 -110q45 -12 62.5 -39.5t17.5 -80.5v-166q0 -106 -43.5 -153t-140.5 -47h-37v148h8q23 0 32.5 13t9.5 41v165q0 30 -11.5 42.5t-38.5 13.5v128h2q44 0 44 47v35q0 20 -10 32t-26 12q-41 0 -41 -53v-624h-169z
" />
    <glyph glyph-name="agrave" unicode="&#xe0;" horiz-adv-x="487" 
d="M284 46q-58 -58 -125 -58q-61 0 -96 41.5t-35 112.5v51q0 122 119 177q11 5 31.5 14.5t29.5 13.5t23 11.5t20 13.5t13.5 14t10 17.5t2.5 20.5v23q0 17 -11.5 29t-27.5 12q-18 0 -29.5 -16.5t-11.5 -45.5v-40h-158v40q0 83 53 129.5t150 46.5q109 0 156 -46t47 -144v-463
h-158zM277 320q-47 -26 -63 -46t-16 -57v-65q0 -32 5.5 -45.5t25.5 -13.5q48 0 48 80v147zM323 689h-70l-171 139h144z" />
    <glyph glyph-name="aacute" unicode="&#xe1;" horiz-adv-x="487" 
d="M284 46q-58 -58 -125 -58q-61 0 -96 41.5t-35 112.5v51q0 122 119 177q11 5 31.5 14.5t29.5 13.5t23 11.5t20 13.5t13.5 14t10 17.5t2.5 20.5v23q0 17 -11.5 29t-27.5 12q-18 0 -29.5 -16.5t-11.5 -45.5v-40h-158v40q0 83 53 129.5t150 46.5q109 0 156 -46t47 -144v-463
h-158zM277 320q-47 -26 -63 -46t-16 -57v-65q0 -32 5.5 -45.5t25.5 -13.5q48 0 48 80v147zM165 689l97 139h144l-171 -139h-70z" />
    <glyph glyph-name="acircumflex" unicode="&#xe2;" horiz-adv-x="487" 
d="M284 46q-58 -58 -125 -58q-61 0 -96 41.5t-35 112.5v51q0 122 119 177q11 5 31.5 14.5t29.5 13.5t23 11.5t20 13.5t13.5 14t10 17.5t2.5 20.5v23q0 17 -11.5 29t-27.5 12q-18 0 -29.5 -16.5t-11.5 -45.5v-40h-158v40q0 83 53 129.5t150 46.5q109 0 156 -46t47 -144v-463
h-158zM277 320q-47 -26 -63 -46t-16 -57v-65q0 -32 5.5 -45.5t25.5 -13.5q48 0 48 80v147zM89 689l97 139h116l97 -139h-70l-85 73l-85 -73h-70z" />
    <glyph glyph-name="atilde" unicode="&#xe3;" horiz-adv-x="487" 
d="M284 46q-58 -58 -125 -58q-61 0 -96 41.5t-35 112.5v51q0 122 119 177q11 5 31.5 14.5t29.5 13.5t23 11.5t20 13.5t13.5 14t10 17.5t2.5 20.5v23q0 17 -11.5 29t-27.5 12q-18 0 -29.5 -16.5t-11.5 -45.5v-40h-158v40q0 83 53 129.5t150 46.5q109 0 156 -46t47 -144v-463
h-158zM277 320q-47 -26 -63 -46t-16 -57v-65q0 -32 5.5 -45.5t25.5 -13.5q48 0 48 80v147zM136 695h-49q24 113 100 113q14 0 34 -5l63 -16q12 -3 25 -3q34 0 43 38h49q-21 -116 -108 -116q-9 0 -25 4l-67 17q-9 3 -20 3q-36 0 -45 -35z" />
    <glyph glyph-name="adieresis" unicode="&#xe4;" horiz-adv-x="487" 
d="M284 46q-58 -58 -125 -58q-61 0 -96 41.5t-35 112.5v51q0 122 119 177q11 5 31.5 14.5t29.5 13.5t23 11.5t20 13.5t13.5 14t10 17.5t2.5 20.5v23q0 17 -11.5 29t-27.5 12q-18 0 -29.5 -16.5t-11.5 -45.5v-40h-158v40q0 83 53 129.5t150 46.5q109 0 156 -46t47 -144v-463
h-158zM277 320q-47 -26 -63 -46t-16 -57v-65q0 -32 5.5 -45.5t25.5 -13.5q48 0 48 80v147zM98 694v128h119v-128h-119zM271 694v128h119v-128h-119z" />
    <glyph glyph-name="aring" unicode="&#xe5;" horiz-adv-x="487" 
d="M284 46q-58 -58 -125 -58q-61 0 -96 41.5t-35 112.5v51q0 122 119 177q11 5 31.5 14.5t29.5 13.5t23 11.5t20 13.5t13.5 14t10 17.5t2.5 20.5v23q0 17 -11.5 29t-27.5 12q-18 0 -29.5 -16.5t-11.5 -45.5v-40h-158v40q0 83 53 129.5t150 46.5q109 0 156 -46t47 -144v-463
h-158zM277 320q-47 -26 -63 -46t-16 -57v-65q0 -32 5.5 -45.5t25.5 -13.5q48 0 48 80v147zM139 788q0 46 32.5 79t78.5 33t79 -33t33 -79q0 -47 -32.5 -79.5t-79.5 -32.5q-46 0 -78.5 33t-32.5 79zM208 787q0 -17 12.5 -29.5t30.5 -12.5t30 12.5t12 29.5q0 19 -12 31t-30 12
t-30.5 -12.5t-12.5 -30.5z" />
    <glyph glyph-name="ae" unicode="&#xe6;" horiz-adv-x="726" 
d="M277 320q-47 -26 -63 -46t-16 -57v-65q0 -32 5.5 -45.5t25.5 -13.5q48 0 48 80v147zM444 164q0 -27 8.5 -40t29.5 -13t29.5 12.5t8.5 40.5v75h171v-51q0 -200 -209 -200q-131 0 -181 79q-53 -79 -142 -79q-61 0 -96 41.5t-35 112.5v51q0 122 119 177q11 5 31.5 14.5
t29.5 13.5t23 11.5t20 13.5t13.5 14t10 17.5t2.5 20.5v23q0 17 -11.5 29t-27.5 12q-18 0 -29.5 -16.5t-11.5 -45.5v-40h-158v40q0 83 53 129.5t150 46.5q67 0 121 -37q48 37 126 37q202 0 202 -200v-161h-247v-128zM444 477v-68h76v68q0 27 -8.5 40t-29.5 13q-38 0 -38 -53z
" />
    <glyph glyph-name="ccedilla" unicode="&#xe7;" horiz-adv-x="488" 
d="M282 477q0 27 -8.5 40t-29.5 13q-38 0 -38 -53v-313q0 -27 8.5 -40t29.5 -13t29.5 12.5t8.5 40.5v108h172v-84q0 -200 -210 -200q-209 0 -209 200v265q0 200 209 200q210 0 210 -200v-55h-172v79zM127 -121l98 121h103l-56 -121h-145z" />
    <glyph glyph-name="egrave" unicode="&#xe8;" horiz-adv-x="488" 
d="M206 164q0 -27 8.5 -40t29.5 -13t29.5 12.5t8.5 40.5v75h172v-51q0 -200 -210 -200q-209 0 -209 200v265q0 200 209 200q210 0 210 -200v-161h-248v-128zM206 477v-68h76v68q0 27 -8.5 40t-29.5 13q-38 0 -38 -53zM323 689h-70l-171 139h144z" />
    <glyph glyph-name="eacute" unicode="&#xe9;" horiz-adv-x="488" 
d="M206 164q0 -27 8.5 -40t29.5 -13t29.5 12.5t8.5 40.5v75h172v-51q0 -200 -210 -200q-209 0 -209 200v265q0 200 209 200q210 0 210 -200v-161h-248v-128zM206 477v-68h76v68q0 27 -8.5 40t-29.5 13q-38 0 -38 -53zM165 689l97 139h144l-171 -139h-70z" />
    <glyph glyph-name="ecircumflex" unicode="&#xea;" horiz-adv-x="488" 
d="M206 164q0 -27 8.5 -40t29.5 -13t29.5 12.5t8.5 40.5v75h172v-51q0 -200 -210 -200q-209 0 -209 200v265q0 200 209 200q210 0 210 -200v-161h-248v-128zM206 477v-68h76v68q0 27 -8.5 40t-29.5 13q-38 0 -38 -53zM89 689l97 139h116l97 -139h-70l-85 73l-85 -73h-70z
" />
    <glyph glyph-name="edieresis" unicode="&#xeb;" horiz-adv-x="488" 
d="M206 164q0 -27 8.5 -40t29.5 -13t29.5 12.5t8.5 40.5v75h172v-51q0 -200 -210 -200q-209 0 -209 200v265q0 200 209 200q210 0 210 -200v-161h-248v-128zM206 477v-68h76v68q0 27 -8.5 40t-29.5 13q-38 0 -38 -53zM98 694v128h119v-128h-119zM271 694v128h119v-128h-119z
" />
    <glyph glyph-name="igrave" unicode="&#xec;" horiz-adv-x="259" 
d="M45 0v641h169v-641h-169zM209 689h-70l-171 139h144z" />
    <glyph glyph-name="iacute" unicode="&#xed;" horiz-adv-x="259" 
d="M45 0v641h169v-641h-169zM51 689l97 139h144l-171 -139h-70z" />
    <glyph glyph-name="icircumflex" unicode="&#xee;" horiz-adv-x="259" 
d="M45 0v641h169v-641h-169zM-25 689l97 139h116l97 -139h-70l-85 73l-85 -73h-70z" />
    <glyph glyph-name="idieresis" unicode="&#xef;" horiz-adv-x="259" 
d="M45 0v641h169v-641h-169zM-16 694v128h119v-128h-119zM157 694v128h119v-128h-119z" />
    <glyph glyph-name="eth" unicode="&#xf0;" horiz-adv-x="488" 
d="M249 599q-18 35 -47 74l-92 -38l-23 55l75 34q-21 27 -27 34l129 61q4 -4 35 -39l96 39l24 -56l-80 -34q59 -79 87 -149t28 -150v-252q0 -190 -210 -190q-209 0 -209 190v252q0 96 30.5 142.5t96.5 46.5q38 0 87 -20zM206 452v-296q0 -51 38 -51q21 0 29.5 12.5t8.5 38.5
v296q0 26 -8.5 38.5t-29.5 12.5q-38 0 -38 -51z" />
    <glyph glyph-name="ntilde" unicode="&#xf1;" 
d="M43 0v641h160v-76q46 88 133 88q122 0 122 -157v-496h-169v445q0 50 -35 50q-24 0 -33 -19t-9 -57v-419h-169zM149 695h-49q24 113 100 113q14 0 34 -5l63 -16q12 -3 25 -3q34 0 43 38h49q-21 -116 -108 -116q-9 0 -25 4l-67 17q-9 3 -20 3q-36 0 -45 -35z" />
    <glyph glyph-name="ograve" unicode="&#xf2;" horiz-adv-x="488" 
d="M35 453q0 200 209 200q210 0 210 -200v-265q0 -200 -210 -200q-209 0 -209 200v265zM282 164v313q0 27 -8.5 40t-29.5 13q-38 0 -38 -53v-313q0 -27 8.5 -40t29.5 -13t29.5 12.5t8.5 40.5zM323 689h-70l-171 139h144z" />
    <glyph glyph-name="oacute" unicode="&#xf3;" horiz-adv-x="488" 
d="M35 453q0 200 209 200q210 0 210 -200v-265q0 -200 -210 -200q-209 0 -209 200v265zM282 164v313q0 27 -8.5 40t-29.5 13q-38 0 -38 -53v-313q0 -27 8.5 -40t29.5 -13t29.5 12.5t8.5 40.5zM165 689l97 139h144l-171 -139h-70z" />
    <glyph glyph-name="ocircumflex" unicode="&#xf4;" horiz-adv-x="488" 
d="M35 453q0 200 209 200q210 0 210 -200v-265q0 -200 -210 -200q-209 0 -209 200v265zM282 164v313q0 27 -8.5 40t-29.5 13q-38 0 -38 -53v-313q0 -27 8.5 -40t29.5 -13t29.5 12.5t8.5 40.5zM89 689l97 139h116l97 -139h-70l-85 73l-85 -73h-70z" />
    <glyph glyph-name="otilde" unicode="&#xf5;" horiz-adv-x="488" 
d="M35 453q0 200 209 200q210 0 210 -200v-265q0 -200 -210 -200q-209 0 -209 200v265zM282 164v313q0 27 -8.5 40t-29.5 13q-38 0 -38 -53v-313q0 -27 8.5 -40t29.5 -13t29.5 12.5t8.5 40.5zM136 695h-49q24 113 100 113q14 0 34 -5l63 -16q12 -3 25 -3q34 0 43 38h49
q-21 -116 -108 -116q-9 0 -25 4l-67 17q-9 3 -20 3q-36 0 -45 -35z" />
    <glyph glyph-name="odieresis" unicode="&#xf6;" horiz-adv-x="488" 
d="M35 453q0 200 209 200q210 0 210 -200v-265q0 -200 -210 -200q-209 0 -209 200v265zM282 164v313q0 27 -8.5 40t-29.5 13q-38 0 -38 -53v-313q0 -27 8.5 -40t29.5 -13t29.5 12.5t8.5 40.5zM98 694v128h119v-128h-119zM271 694v128h119v-128h-119z" />
    <glyph glyph-name="divide" unicode="&#xf7;" horiz-adv-x="833" 
d="M417 577q33 0 56.5 -23.5t23.5 -57.5q0 -33 -23.5 -56.5t-57.5 -23.5t-57 23.5t-23 56.5q0 34 24 57.5t57 23.5zM124 355h585v-113h-585v113zM417 181q33 0 56.5 -23.5t23.5 -57.5q0 -33 -23 -56.5t-57 -23.5q-33 0 -57 23.5t-24 56.5q0 34 24 57.5t57 23.5z" />
    <glyph glyph-name="oslash" unicode="&#xf8;" horiz-adv-x="488" 
d="M35 453q0 200 209 200q93 0 142 -37l38 67l52 -32l-47 -82q25 -37 25 -116v-265q0 -200 -210 -200q-96 0 -147 42l-37 -61l-53 31l49 79q-21 38 -21 109v265zM206 477v-164l76 143v21q0 27 -8.5 40t-29.5 13q-38 0 -38 -53zM282 164v160l-76 -143v-17q0 -27 8.5 -40
t29.5 -13t29.5 12.5t8.5 40.5z" />
    <glyph glyph-name="ugrave" unicode="&#xf9;" 
d="M457 641v-641h-160v76q-46 -88 -133 -88q-123 0 -123 158v495h170v-445q0 -49 35 -49q24 0 33 18.5t9 56.5v419h169zM329 689h-70l-171 139h144z" />
    <glyph glyph-name="uacute" unicode="&#xfa;" 
d="M457 641v-641h-160v76q-46 -88 -133 -88q-123 0 -123 158v495h170v-445q0 -49 35 -49q24 0 33 18.5t9 56.5v419h169zM171 689l97 139h144l-171 -139h-70z" />
    <glyph glyph-name="ucircumflex" unicode="&#xfb;" 
d="M457 641v-641h-160v76q-46 -88 -133 -88q-123 0 -123 158v495h170v-445q0 -49 35 -49q24 0 33 18.5t9 56.5v419h169zM95 689l97 139h116l97 -139h-70l-85 73l-85 -73h-70z" />
    <glyph glyph-name="udieresis" unicode="&#xfc;" 
d="M457 641v-641h-160v76q-46 -88 -133 -88q-123 0 -123 158v495h170v-445q0 -49 35 -49q24 0 33 18.5t9 56.5v419h169zM104 694v128h119v-128h-119zM277 694v128h119v-128h-119z" />
    <glyph glyph-name="yacute" unicode="&#xfd;" horiz-adv-x="422" 
d="M47 -116v127h27q39 0 39 24q0 16 -7 50l-109 556h178l23 -273q7 -80 16 -211q5 50 11 122t8 90l25 272h170l-113 -591q-18 -96 -56.5 -131t-127.5 -35h-84zM132 689l97 139h144l-171 -139h-70z" />
    <glyph glyph-name="thorn" unicode="&#xfe;" horiz-adv-x="493" 
d="M43 801h169v-223q42 75 124 75q122 0 122 -157v-350q0 -158 -122 -158q-79 0 -124 74v-178h-169v917zM212 216q0 -53 8 -77t32 -24q34 0 34 50v312q0 49 -34 49q-24 0 -32 -24t-8 -77v-209z" />
    <glyph glyph-name="ydieresis" unicode="&#xff;" horiz-adv-x="422" 
d="M47 -116v127h27q39 0 39 24q0 16 -7 50l-109 556h178l23 -273q7 -80 16 -211q5 50 11 122t8 90l25 272h170l-113 -591q-18 -96 -56.5 -131t-127.5 -35h-84zM65 694v128h119v-128h-119zM238 694v128h119v-128h-119z" />
    <glyph glyph-name="dotlessi" unicode="&#x131;" horiz-adv-x="259" 
d="M45 0v641h169v-641h-169z" />
    <glyph glyph-name="Lslash" unicode="&#x141;" horiz-adv-x="435" 
d="M51 0v322l-46 -32v102l46 31v378h180v-291l100 67v-101l-100 -67v-252h199v-157h-379z" />
    <glyph glyph-name="lslash" unicode="&#x142;" horiz-adv-x="268" 
d="M50 0v336l-45 -30v72l45 30v393h168v-309l45 30v-72l-45 -30v-420h-168z" />
    <glyph glyph-name="OE" unicode="&#x152;" horiz-adv-x="763" 
d="M38 565q0 247 239 247q19 0 67.5 -5.5t81.5 -5.5h306v-155h-224v-159h198v-153h-198v-179h231v-155h-313q-21 0 -70.5 -6t-78.5 -6q-239 0 -239 248v329zM221 594v-388q0 -38 13 -56t43 -18q29 0 42 18t13 56v388q0 38 -13 56.5t-43 18.5q-55 0 -55 -75z" />
    <glyph glyph-name="oe" unicode="&#x153;" horiz-adv-x="731" 
d="M282 164v313q0 27 -8.5 40t-29.5 13q-38 0 -38 -53v-313q0 -27 8.5 -40t29.5 -13t29.5 12.5t8.5 40.5zM449 164q0 -27 8.5 -40t29.5 -13t29.5 12.5t8.5 40.5v75h172v-51q0 -200 -202 -200q-84 0 -130 45q-47 -45 -135 -45q-94 0 -144.5 51t-50.5 149v265q0 200 209 200
q80 0 121 -41q50 41 132 41q97 0 148.5 -51t51.5 -149v-161h-248v-128zM449 477v-68h76v68q0 27 -8.5 40t-29.5 13q-38 0 -38 -53z" />
    <glyph glyph-name="Scaron" unicode="&#x160;" horiz-adv-x="521" 
d="M22 277h179v-65q0 -80 59 -80q27 0 43.5 18t16.5 47q0 50 -62 100q-14 11 -44 34.5t-45.5 35.5t-37 30.5t-36.5 34.5q-63 65 -63 167q0 100 61.5 156.5t173.5 56.5q223 0 223 -204v-66h-171v55q0 75 -57 75q-24 0 -38.5 -16.5t-14.5 -42.5q0 -22 17 -46.5t37 -42
t70 -58.5q96 -80 119 -109q13 -15 20 -28q28 -51 28 -121q0 -103 -64 -161t-180 -58q-115 0 -174.5 58t-59.5 170v60zM106 988h70l85 -73l85 73h70l-97 -139h-116z" />
    <glyph glyph-name="scaron" unicode="&#x161;" horiz-adv-x="433" 
d="M21 208h154v-37q0 -62 38 -62q17 0 27.5 13.5t10.5 36.5q0 16 -9 31t-18 23t-36 30q-8 6 -37 30t-36 30.5l-28 26t-27 30.5t-17 30.5t-14 38.5t-3 42q0 84 53.5 133.5t143.5 49.5q87 0 135 -45.5t48 -128.5v-29h-153v28q0 57 -36 57q-16 0 -26.5 -11.5t-10.5 -30.5
q0 -12 4.5 -23t17.5 -24t23 -21.5t35 -28.5t39 -31q62 -50 88.5 -92t26.5 -102q0 -84 -54.5 -134t-149.5 -50q-89 0 -139 47t-50 130v43zM62 828h70l85 -73l85 73h70l-97 -139h-116z" />
    <glyph glyph-name="Ydieresis" unicode="&#x178;" horiz-adv-x="454" 
d="M139 0v315l-153 486h192l31 -148q15 -77 20 -138q5 56 20 129l32 157h187l-148 -473v-328h-181zM81 854v128h119v-128h-119zM254 854v128h119v-128h-119z" />
    <glyph glyph-name="Zcaron" unicode="&#x17d;" horiz-adv-x="479" 
d="M9 0v151l258 495h-244v155h445v-151l-258 -495h256v-155h-457zM85 988h70l85 -73l85 73h70l-97 -139h-116z" />
    <glyph glyph-name="zcaron" unicode="&#x17e;" horiz-adv-x="421" 
d="M16 0v142l199 365h-191v134h381v-128l-207 -379h208v-134h-390zM56 828h70l85 -73l85 73h70l-97 -139h-116z" />
    <glyph glyph-name="florin" unicode="&#x192;" 
d="M2 -101l19 118q15 -4 27 -4q29 0 44 21.5t24 72.5l59 327h-89l21 116h89l13 78q14 89 57.5 131t123.5 42q34 0 97 -7l-23 -118q-1 0 -12.5 1.5t-16.5 1.5q-30 0 -45.5 -17.5t-22.5 -57.5l-10 -54h88l-20 -116h-88l-61 -344q-19 -106 -61 -152t-127 -46q-30 0 -86 7z" />
    <glyph glyph-name="circumflex" unicode="&#x2c6;" 
d="M95 689l97 139h116l97 -139h-70l-85 73l-85 -73h-70z" />
    <glyph glyph-name="caron" unicode="&#x2c7;" 
d="M95 828h70l85 -73l85 73h70l-97 -139h-116z" />
    <glyph glyph-name="breve" unicode="&#x2d8;" 
d="M96 828h65q10 -60 89 -60q80 0 89 60h65q-8 -72 -45 -105.5t-109 -33.5q-71 0 -109 34t-45 105z" />
    <glyph glyph-name="dotaccent" unicode="&#x2d9;" 
d="M189 692v133h122v-133h-122z" />
    <glyph glyph-name="ring" unicode="&#x2da;" 
d="M139 797q0 46 32.5 78.5t78.5 32.5t79 -32.5t33 -78.5q0 -47 -32.5 -80t-79.5 -33q-46 0 -78.5 33t-32.5 80zM208 795q0 -17 12.5 -29t30.5 -12t30 12t12 29q0 19 -12 31t-30 12t-30.5 -12.5t-12.5 -30.5z" />
    <glyph glyph-name="ogonek" unicode="&#x2db;" 
d="M329 0q-46 -67 -46 -111q0 -43 29 -73h-125q-16 27 -16 54q0 60 79 130h79z" />
    <glyph glyph-name="tilde" unicode="&#x2dc;" 
d="M142 695h-49q24 113 100 113q14 0 34 -5l63 -16q12 -3 25 -3q34 0 43 38h49q-21 -116 -108 -116q-9 0 -25 4l-67 17q-9 3 -20 3q-36 0 -45 -35z" />
    <glyph glyph-name="hungarumlaut" unicode="&#x2dd;" 
d="M133 689l63 139h122l-138 -139h-47zM280 689l79 139h128l-153 -139h-54z" />
    <glyph glyph-name="endash" unicode="&#x2013;" 
d="M0 275v110h500v-110h-500z" />
    <glyph glyph-name="emdash" unicode="&#x2014;" horiz-adv-x="1000" 
d="M0 385h1000v-110h-1000v110z" />
    <glyph glyph-name="quoteleft" unicode="&#x2018;" horiz-adv-x="250" 
d="M200 693v-169h-150v138q0 77 69 139h81q-65 -58 -76 -108h76z" />
    <glyph glyph-name="quoteright" unicode="&#x2019;" horiz-adv-x="250" 
d="M50 632v169h150v-138q0 -77 -69 -139h-81q65 58 76 108h-76z" />
    <glyph glyph-name="quotesinglbase" unicode="&#x201a;" horiz-adv-x="250" 
d="M50 0v169h150v-138q0 -77 -69 -139h-81q65 58 76 108h-76z" />
    <glyph glyph-name="quotedblleft" unicode="&#x201c;" horiz-adv-x="449" 
d="M200 693v-169h-150v138q0 77 69 139h81q-65 -58 -76 -108h76zM399 693v-169h-150v138q0 77 69 139h81q-65 -58 -76 -108h76z" />
    <glyph glyph-name="quotedblright" unicode="&#x201d;" horiz-adv-x="449" 
d="M249 632v169h150v-138q0 -77 -69 -139h-81q65 58 76 108h-76zM50 632v169h150v-138q0 -77 -69 -139h-81q65 58 76 108h-76z" />
    <glyph glyph-name="quotedblbase" unicode="&#x201e;" horiz-adv-x="449" 
d="M50 0v169h150v-138q0 -77 -69 -139h-81q65 58 76 108h-76zM249 0v169h150v-138q0 -77 -69 -139h-81q65 58 76 108h-76z" />
    <glyph glyph-name="dagger" unicode="&#x2020;" horiz-adv-x="454" 
d="M145 -77v531h-119v137h119v210h163v-210h120v-137h-120v-531h-163z" />
    <glyph glyph-name="daggerdbl" unicode="&#x2021;" horiz-adv-x="454" 
d="M145 -77v198h-119v136h119v212h-119v136h119v196h163v-196h120v-136h-120v-212h120v-136h-120v-198h-163z" />
    <glyph glyph-name="bullet" unicode="&#x2022;" horiz-adv-x="590" 
d="M150 372q0 60 42.5 102t102.5 42q59 0 101.5 -42t42.5 -102q0 -59 -42.5 -102t-102.5 -43t-102 42.5t-42 102.5z" />
    <glyph glyph-name="ellipsis" unicode="&#x2026;" horiz-adv-x="1000" 
d="M86 0v190h162v-190h-162zM419 0v190h162v-190h-162zM753 0v190h162v-190h-162z" />
    <glyph glyph-name="perthousand" unicode="&#x2030;" horiz-adv-x="1086" 
d="M38 643q0 81 33.5 119.5t106.5 38.5t106 -38.5t33 -119.5v-105q0 -81 -33 -119.5t-106 -38.5t-106.5 38.5t-33.5 119.5v105zM624 801l-414 -810h-86l414 810h86zM151 681v-180q0 -32 27 -32q26 0 26 32v180q0 33 -26 33q-27 0 -27 -33zM431 254q0 80 33.5 118.5
t106.5 38.5t106 -38t33 -119v-106q0 -81 -33 -119t-106 -38t-106.5 38.5t-33.5 118.5v106zM544 291v-180q0 -32 27 -32q26 0 26 32v180q0 32 -26 32q-27 0 -27 -32zM768 254q0 80 33.5 118.5t106.5 38.5t106 -38t33 -119v-106q0 -81 -33 -119t-106 -38t-106.5 38.5
t-33.5 118.5v106zM881 291v-180q0 -32 27 -32q26 0 26 32v180q0 32 -26 32q-27 0 -27 -32z" />
    <glyph glyph-name="guilsinglleft" unicode="&#x2039;" horiz-adv-x="296" 
d="M268 185h-133l-100 145l100 145h133l-103 -145z" />
    <glyph glyph-name="guilsinglright" unicode="&#x203a;" horiz-adv-x="296" 
d="M28 185l103 145l-103 145h133l101 -145l-101 -145h-133z" />
    <glyph glyph-name="fraction" unicode="&#x2044;" horiz-adv-x="167" 
d="M333 801l-414 -810h-86l415 810h85z" />
    <glyph glyph-name="Euro" unicode="&#x20ac;" 
d="M462 197q0 -206 -199 -206t-199 206v117h-64l17 52h47v60h-64l17 52h47v117q0 206 199 206t199 -206v-72h-165v91q0 48 -34 48t-34 -48v-136h171l-17 -52h-154v-60h134l-17 -52h-117v-136q0 -48 34 -48t34 48v91h165v-72z" />
    <glyph glyph-name="trademark" unicode="&#x2122;" horiz-adv-x="833" 
d="M92 715h245v-62h-80v-207h-85v207h-80v62zM389 715h109l55 -148l56 148h108v-269h-76v190l-71 -190h-32l-73 190v-190h-76v269z" />
    <glyph glyph-name="minus" unicode="&#x2212;" horiz-adv-x="833" 
d="M124 356h585v-115h-585v115z" />
    <glyph glyph-name="fi" unicode="&#xfb01;" horiz-adv-x="514" 
d="M49 0v509h-42v122h42v11q0 89 31 124t114 35h67v-116h-4q-25 0 -35 -9.5t-10 -35.5v-9h49v-122h-46v-509h-166zM300 0v641h169v-641h-169zM300 677v124h169v-124h-169z" />
    <glyph glyph-name="fl" unicode="&#xfb02;" horiz-adv-x="514" 
d="M49 0v509h-42v122h42v11q0 89 31 124t114 35h67v-116h-4q-25 0 -35 -9.5t-10 -35.5v-9h49v-122h-46v-509h-166zM300 0v801h169v-801h-169z" />
    </font>
</defs>
</svg>
